<mxfile host="app.diagrams.net" modified="2021-01-14T18:04:05.020Z" agent="5.0 (X11)" etag="tKBSTodAuGCdfR1438Hl" version="14.0.4" type="github">
  <diagram id="myGCvKM6Zi7vychUMCT0" name="Page-1">
    <mxGraphModel dx="1422" dy="691" grid="1" gridSize="10" guides="1" tooltips="1" connect="1" arrows="1" fold="1" page="1" pageScale="1" pageWidth="827" pageHeight="1169" math="0" shadow="0">
      <root>
        <mxCell id="0" />
        <mxCell id="1" parent="0" />
        <mxCell id="E-fRG8bQz2QIVVeTn81s-1" value="&lt;font style=&quot;font-size: 28px&quot;&gt;&lt;b&gt;&lt;font style=&quot;font-size: 28px&quot;&gt;Aluno TEM o arquivo PDF -&amp;nbsp; pré BANCA&lt;br&gt;&lt;/font&gt;&lt;/b&gt;&lt;/font&gt;" style="rounded=0;whiteSpace=wrap;html=1;" vertex="1" parent="1">
          <mxGeometry x="60" y="400" width="690" height="70" as="geometry" />
        </mxCell>
        <mxCell id="E-fRG8bQz2QIVVeTn81s-2" value="&lt;font style=&quot;font-size: 20px&quot;&gt;&lt;b&gt;Biblioteca disponiliza o arquivo no Portal&lt;/b&gt;&lt;/font&gt;" style="rounded=0;whiteSpace=wrap;html=1;" vertex="1" parent="1">
          <mxGeometry x="160" y="780" width="550" height="80" as="geometry" />
        </mxCell>
        <mxCell id="E-fRG8bQz2QIVVeTn81s-4" value="&lt;b&gt;&lt;font style=&quot;font-size: 27px&quot;&gt;Defesa Banc&lt;/font&gt;&lt;font style=&quot;font-size: 27px&quot;&gt;a&lt;/font&gt;&lt;/b&gt;" style="rounded=0;whiteSpace=wrap;html=1;" vertex="1" parent="1">
          <mxGeometry x="200" y="530" width="370" height="70" as="geometry" />
        </mxCell>
        <mxCell id="E-fRG8bQz2QIVVeTn81s-5" value="&lt;b&gt;&lt;font style=&quot;font-size: 24px&quot;&gt;Substituição Arquivo&lt;/font&gt;&lt;/b&gt;" style="rounded=0;whiteSpace=wrap;html=1;" vertex="1" parent="1">
          <mxGeometry x="228" y="620" width="371" height="70" as="geometry" />
        </mxCell>
        <mxCell id="E-fRG8bQz2QIVVeTn81s-6" value="" style="endArrow=classic;html=1;" edge="1" parent="1">
          <mxGeometry width="50" height="50" relative="1" as="geometry">
            <mxPoint x="384.5" y="470" as="sourcePoint" />
            <mxPoint x="384.5" y="520" as="targetPoint" />
          </mxGeometry>
        </mxCell>
        <mxCell id="E-fRG8bQz2QIVVeTn81s-7" value="" style="endArrow=classic;html=1;" edge="1" parent="1">
          <mxGeometry width="50" height="50" relative="1" as="geometry">
            <mxPoint x="404.5" y="630" as="sourcePoint" />
            <mxPoint x="404.5" y="710" as="targetPoint" />
          </mxGeometry>
        </mxCell>
        <mxCell id="E-fRG8bQz2QIVVeTn81s-8" value="&lt;font style=&quot;font-size: 27px&quot;&gt;&lt;b&gt;&lt;font style=&quot;font-size: 27px&quot;&gt;Aluno submete no sistema, os mesmos campos do form de autorização &amp;nbsp; &lt;/font&gt;&lt;/b&gt;&lt;/font&gt;" style="rounded=0;whiteSpace=wrap;html=1;" vertex="1" parent="1">
          <mxGeometry x="30" y="30" width="750" height="180" as="geometry" />
        </mxCell>
      </root>
    </mxGraphModel>
  </diagram>
</mxfile>
